<svg xmlns="http://www.w3.org/2000/svg" viewBox="0 0 169.37 140.94"><defs><style>.cls-1{fill:#7ac044;}</style></defs><title>ProtivityAsset 3</title><g id="Layer_2" data-name="Layer 2"><g id="Layer_7" data-name="Layer 7"><path class="cls-1" d="M96.13,72.13v41.81a17,17,0,0,1-17,17H27a17,17,0,0,1-17-17V61.81a17,17,0,0,1,17-17H79.13A16.89,16.89,0,0,1,90.8,49.48q3.44-3.79,6.85-7.31a26.9,26.9,0,0,0-18.52-7.36H27a27,27,0,0,0-27,27v52.13a27,27,0,0,0,27,27H79.13a27,27,0,0,0,27-27V61.81c0-.92,0-1.83-.14-2.73C102.71,63.21,99.44,67.56,96.13,72.13Z"/><path class="cls-1" d="M54.24,128a4.43,4.43,0,0,1-3.54-1.78c-12.54-16.63-31.43-42.49-36.92-50a3.88,3.88,0,0,1,1-5.48l8.18-5.55a3.93,3.93,0,0,1,2.18-.66,3.86,3.86,0,0,1,3.16,1.65C30.6,69.49,37.73,79.28,44,87.92c4.09,5.62,7.78,10.69,9.91,13.65,38-58,72.7-89.36,112.24-101.46a2.42,2.42,0,0,1,3.14,2.25c0,.86,0,1.39,0,1.92s0,.78,0,1.32A2.37,2.37,0,0,1,167.77,8C125.44,22.2,98.59,62,58.27,125.7a4.77,4.77,0,0,1-4,2.28Z"/></g></g></svg>